
<svg xmlns="http://www.w3.org/2000/svg" width="24" height="24" fill="none"><g clip-path="url(#a)"><path stroke="#2A7DEC" d="M12 2v10M19.5 4.5 12 12m0 0L4.5 4.5M12 12H1.5M12 12h10.5"/><rect width="15" height="15" x="4.5" y="4.5" fill="#fff" rx="7.5"/><rect width="15" height="15" x="4.5" y="4.5" stroke="#2A7DEC" rx="7.5"/><path fill="#2A7DEC" fill-rule="evenodd" d="M8.64 9.36a3.36 3.36 0 1 0 6.72 0 3.36 3.36 0 0 0-6.72 0ZM12 13.839a5.6 5.6 0 0 1 5.599 5.6.56.56 0 0 1-.56.561H6.959a.56.56 0 0 1-.559-.56A5.6 5.6 0 0 1 12 13.84Z" clip-rule="evenodd"/><circle cx="12" cy="1.5" r="1.5" fill="#2A7DEC"/><circle cx="4.5" cy="4.5" r="1.5" fill="#2A7DEC"/><circle cx="1.5" cy="12" r="1.5" fill="#2A7DEC"/><circle cx="19.5" cy="4.5" r="1.5" fill="#2A7DEC"/><circle cx="22.5" cy="12" r="1.5" fill="#2A7DEC"/><rect width="12" height="12" x="12" y="12" fill="#D4E5FB" rx="6"/><path fill="#2A7DEC" fill-rule="evenodd" d="M18.5 14a.5.5 0 0 0-1 0v.5a2 2 0 0 0 0 4v2a1 1 0 0 1-.943-.666.5.5 0 0 0-.943.332A2 2 0 0 0 17.5 21.5v.5a.5.5 0 0 0 1 0v-.5a2 2 0 0 0 0-4v-2a1 1 0 0 1 .943.666.5.5 0 0 0 .943-.332A2 2 0 0 0 18.5 14.5V14Zm-1 1.5a1 1 0 0 0 0 2v-2Zm1 3v2a1 1 0 0 0 0-2Z" clip-rule="evenodd"/></g><defs><clipPath id="a"><path fill="#fff" d="M0 0h24v24H0z"/></clipPath></defs></svg>