<svg xmlns="http://www.w3.org/2000/svg" width="2310" height="1350" fill="none"><g clip-path="url(#a)"><path fill="#F5F7FA" d="M0 0h2310v1350H0z"/><g filter="url(#b)"><ellipse cx="2112" cy="350" fill="#2765E9" fill-opacity=".18" rx="605" ry="557"/></g><g filter="url(#c)"><circle cx="209" cy="958" r="373" fill="#27E9E9" fill-opacity=".2"/></g><path fill="#E0E0E0" stroke="#E0E0E0" d="m451.41 1347.76-135.877 14.97-3.171 25.05 136.211-17.6 2.837-22.42Z" opacity=".5"/><path fill="#fff" fill-opacity=".47" fill-rule="evenodd" d="M279.882.776H31.872v220.82h222.316l25.694-22.877V.776Zm26.379 220.82-25.362-22.582V.776H528.91v220.82H306.261Zm-25.362 23.151 24.985-22.246H528.91v220.821H280.899V244.747Zm-26.333-22.246 25.316 22.541v198.28H31.872V222.501h222.694ZM31 0V1331h2491V0H31Zm498.926.776h248.011v220.82H529.926V.776Zm497.034 0H778.953v220.82h248.007V.776Zm1.02 0h248.01v220.82h-248.01V.776Zm497.04 0h-248.01v220.82h248.01V.776Zm1.02 0h248.01v220.82h-248.01V.776Zm497.03 0h-248.01v220.82h248.01V.776Zm1.02 0h248.01v220.82h-248.01V.776Zm497.04 0h-248.01v220.82h248.01V.776ZM529.926 222.5h248.011v220.821H529.926V222.501Zm497.034 0H778.953v220.821h223.067l24.94-22.211v-198.61Zm25.57 220.821-24.55-21.856V222.501h248.01v220.821h-223.46Zm-24.55 23.816 25.65-22.836-.09-.075h222.45v220.82h-248.01V467.138ZM1001 444.227l-.08.075 26.04 23.192v197.553H778.953v-220.82H1001Zm524.02-221.726h-248.01v220.821h248.01V222.501Zm1.02 0h248.01v220.821h-248.01V222.501Zm497.03 0h-248.01v220.821h248.01V222.501Zm1.02 0h248.01v159.558l-.42.375-68.39 60.888h-179.2V222.501Zm178.19 221.726h-178.19v199.066l.83-.742 25.27 22.496h221.91V506.546l-.42-.376-68.81-61.269-.68-.599.09-.075Zm69.82 61.121-68.56-61.046.08-.075h42.46l-.08.075 26.1 23.243v37.803Zm1.02.741v158.958h248.01v-220.82h-178.7l.08.075-.67.599-68.72 61.188Zm67.96-61.862.09.075-68.05 60.589v-37.803l25.59-22.786-.09-.075h42.46Zm.33-.905h179.72V222.501h-248.01v160.015l68.29 60.806Zm-68.29-59.607 66.95 59.607h-42.46l-24.49-21.805v-37.802Zm-1.02-.457-67.46 60.064h42.46l25-22.262v-37.802Zm-248.01 305.484.83.742 26.36-23.466-.07-.066h220.89v220.821h-248.01V688.742Zm-25.45-22.79-.07.066 24.5 21.82v198.935h-248.01V665.952h223.58Zm24.43-21.754-23.41 20.849h-224.6v-220.82h248.01v199.971ZM31.871 444.227h248.011v220.82H31.872v-220.82Zm497.039 0H280.899v220.82H528.91v-220.82Zm1.016 0h248.011v220.82H529.926v-220.82Zm995.094 0h-248.01v220.82h248.01v-220.82Zm1.02 0h248.01v220.82h-248.01v-220.82ZM31.871 665.952h248.011v220.821H31.872V665.952Zm497.039 0H280.899v220.821h179.484l-.323-.287.673-.6 68.177-60.701V665.952Zm0 160.431-67.504 60.103.323.287h42.457l-.322-.287 25.046-22.301v-37.802Zm1.016 36.898v-37.803l.294-.261 68.813 61.269-.323.287h-42.457l.323-.287-26.356-23.467-.294.262Zm0 46.409.294.262 25.017-22.274h42.457l-67.474 60.077-.294-.262V909.69Zm-24.723-22.012 23.707 21.108v37.803l-66.165-58.911h42.458Zm-43.803 0H280.899V1108.5H528.91V947.787l-67.51-60.109Zm68.526 61.013V1108.5h248.011V887.678H599.039l-68.147 60.676-.672.599-.294-.262Zm70.13-61.918h177.881V665.952H529.926V824.28l.294-.262.672.599 68.814 61.269.673.6-.323.287Zm426.904-220.821H778.953v220.821h248.007V665.952Zm1.02 0h248.01v220.821h-248.01V665.952Zm497.04 0h-248.01v220.821h248.01V665.952Zm1.02 0h248.01v220.821h-248.01V665.952Zm995.09 0h-248.01v220.821h248.01V665.952ZM31.871 887.678h248.011V1108.5H31.872V887.678Zm995.089 0H778.953V1108.5h248.007V887.678Zm1.02 0h248.01V1108.5h-248.01V887.678Zm497.04 0h-248.01V1108.5h248.01V887.678Zm1.02 0h248.01V1108.5h-248.01V887.678Zm497.03 0h-248.01V1108.5h248.01V887.678Zm1.02 0h248.01V1108.5h-248.01V887.678Zm497.04 0h-248.01V1108.5h248.01V887.678ZM31.871 1109.4h248.011v220.82H31.872V1109.4Zm497.039 0H280.899v220.82H528.91V1109.4Zm1.016 0h248.011v220.82H529.926V1109.4Zm497.034 0H778.953v220.82h248.007V1109.4Zm1.02 0h248.01v220.82h-248.01V1109.4Zm497.04 0h-248.01v220.82h248.01V1109.4Zm1.02 0h248.01v220.82h-248.01V1109.4Zm497.03 0h-248.01v220.82h248.01V1109.4Zm1.02 0h248.01v220.82h-248.01V1109.4Zm497.04 0h-248.01v220.82h248.01V1109.4Z" clip-rule="evenodd"/></g><defs><filter id="b" width="1930" height="1834" x="1147" y="-567" color-interpolation-filters="sRGB" filterUnits="userSpaceOnUse"><feFlood flood-opacity="0" result="BackgroundImageFix"/><feBlend in="SourceGraphic" in2="BackgroundImageFix" result="shape"/><feGaussianBlur result="effect1_foregroundBlur_96_67" stdDeviation="180"/></filter><filter id="c" width="1546" height="1546" x="-564" y="185" color-interpolation-filters="sRGB" filterUnits="userSpaceOnUse"><feFlood flood-opacity="0" result="BackgroundImageFix"/><feBlend in="SourceGraphic" in2="BackgroundImageFix" result="shape"/><feGaussianBlur result="effect1_foregroundBlur_96_67" stdDeviation="200"/></filter><clipPath id="a"><path fill="#fff" d="M0 0h2310v1350H0z"/></clipPath></defs></svg>