
<svg xmlns="http://www.w3.org/2000/svg" width="525" height="519" fill="none"><g filter="url(#a)"><rect width="460" height="464" x="36.457" y="16.084" fill="#fff" rx="24"/><path fill="#000" fill-opacity=".87" d="M75.336 48.937 69.993 59.23v5.855h-2.649v-5.855l-5.366-10.292h2.95l3.74 7.923 3.741-7.923h2.927Zm7.422 16.356c-1.208 0-2.3-.271-3.275-.813a6.027 6.027 0 0 1-2.3-2.323c-.558-1.007-.837-2.169-.837-3.485 0-1.301.287-2.455.86-3.462a5.938 5.938 0 0 1 2.346-2.323c.992-.542 2.099-.813 3.323-.813 1.223 0 2.33.27 3.322.813a5.937 5.937 0 0 1 2.346 2.323c.573 1.007.86 2.16.86 3.462 0 1.3-.294 2.455-.883 3.462a6.173 6.173 0 0 1-2.416 2.346c-1.007.542-2.122.813-3.346.813Zm0-2.3c.682 0 1.317-.163 1.906-.488.603-.325 1.091-.813 1.463-1.464.372-.65.558-1.44.558-2.37 0-.928-.178-1.71-.535-2.346-.356-.65-.828-1.138-1.417-1.463a3.875 3.875 0 0 0-1.905-.488c-.681 0-1.316.162-1.905.488-.573.325-1.03.813-1.37 1.463-.341.635-.512 1.417-.512 2.347 0 1.378.349 2.447 1.046 3.206.712.743 1.603 1.115 2.671 1.115Zm20.624-10.71v12.801h-2.649v-1.51c-.418.526-.968.945-1.65 1.254a5.229 5.229 0 0 1-2.137.442c-1.006 0-1.912-.21-2.718-.627-.79-.419-1.417-1.038-1.882-1.859-.449-.82-.673-1.812-.673-2.974v-7.527h2.625v7.132c0 1.146.286 2.03.86 2.649.573.604 1.355.906 2.346.906.991 0 1.773-.302 2.346-.906.589-.62.883-1.503.883-2.649v-7.132h2.649Zm5.91 1.858a4.104 4.104 0 0 1 1.534-1.51c.65-.371 1.417-.557 2.3-.557v2.741h-.674c-1.038 0-1.828.264-2.37.79-.526.527-.79 1.44-.79 2.742v6.737h-2.648V52.283h2.648v1.858Zm10.956 4.484c0-1.285.263-2.424.79-3.415.542-.991 1.27-1.758 2.184-2.3a5.847 5.847 0 0 1 3.066-.836c1.007 0 1.882.201 2.626.604.759.387 1.363.875 1.812 1.464v-1.86h2.671v12.802h-2.671v-1.905c-.449.604-1.061 1.107-1.836 1.51-.774.403-1.657.604-2.648.604-1.1 0-2.107-.279-3.02-.836-.914-.573-1.642-1.363-2.184-2.37-.527-1.022-.79-2.176-.79-3.462Zm10.478.047c0-.883-.186-1.65-.558-2.3-.356-.65-.828-1.146-1.417-1.487a3.74 3.74 0 0 0-1.905-.511c-.682 0-1.317.17-1.905.51-.589.326-1.069.814-1.441 1.465-.356.635-.534 1.394-.534 2.276 0 .883.178 1.658.534 2.324.372.666.852 1.177 1.441 1.533a3.82 3.82 0 0 0 1.905.511 3.74 3.74 0 0 0 1.905-.511c.589-.34 1.061-.836 1.417-1.487.372-.666.558-1.44.558-2.323Zm11.285-4.228h-2.37v10.64h-2.672v-10.64h-1.51v-2.161h1.51v-.906c0-1.472.387-2.54 1.162-3.206.79-.682 2.021-1.023 3.694-1.023v2.208c-.806 0-1.371.154-1.696.464-.326.294-.488.813-.488 1.557v.906h2.37v2.16Zm7.481 0h-2.37v10.64h-2.671v-10.64h-1.51v-2.161h1.51v-.906c0-1.472.387-2.54 1.161-3.206.79-.682 2.022-1.023 3.694-1.023v2.208c-.805 0-1.37.154-1.696.464-.325.294-.488.813-.488 1.557v.906h2.37v2.16Zm3.463-3.857c-.481 0-.883-.163-1.209-.488a1.64 1.64 0 0 1-.487-1.208c0-.48.162-.883.487-1.208a1.643 1.643 0 0 1 1.209-.488c.464 0 .859.163 1.184.488.326.325.488.728.488 1.208s-.162.883-.488 1.208c-.325.325-.72.488-1.184.488Zm1.301 1.696v12.801h-2.649V52.283h2.649Zm5.893-4.391v17.192H157.5V47.892h2.649Zm4.592 2.695c-.48 0-.882-.163-1.208-.488a1.642 1.642 0 0 1-.488-1.208c0-.48.163-.883.488-1.208a1.642 1.642 0 0 1 1.208-.488c.465 0 .86.163 1.185.488.325.325.488.728.488 1.208s-.163.883-.488 1.208c-.325.325-.72.488-1.185.488Zm1.301 1.696v12.801h-2.648V52.283h2.648Zm2.362 6.342c0-1.285.264-2.424.79-3.415.542-.991 1.27-1.758 2.184-2.3a5.853 5.853 0 0 1 3.067-.836c1.007 0 1.882.201 2.625.604.759.387 1.363.875 1.812 1.464v-1.86h2.672v12.802h-2.672v-1.905c-.449.604-1.061 1.107-1.835 1.51s-1.657.604-2.649.604a5.688 5.688 0 0 1-3.02-.836c-.914-.573-1.642-1.363-2.184-2.37-.526-1.022-.79-2.176-.79-3.462Zm10.478.047c0-.883-.186-1.65-.557-2.3-.356-.65-.829-1.146-1.417-1.487a3.74 3.74 0 0 0-1.905-.511c-.682 0-1.317.17-1.906.51-.588.326-1.068.814-1.44 1.465-.356.635-.534 1.394-.534 2.276 0 .883.178 1.658.534 2.324.372.666.852 1.177 1.44 1.533.605.34 1.24.511 1.906.511a3.74 3.74 0 0 0 1.905-.511c.588-.34 1.061-.836 1.417-1.487.371-.666.557-1.44.557-2.323Zm9.008-4.228v7.085c0 .48.109.829.326 1.046.232.201.619.302 1.161.302h1.627v2.207h-2.091c-1.193 0-2.107-.279-2.742-.836-.635-.558-.952-1.464-.952-2.719v-7.086h-1.51v-2.16h1.51V49.1h2.671v3.183h3.114v2.16h-3.114Zm17.055 3.926c0 .48-.031.914-.093 1.3h-9.781c.077 1.023.457 1.844 1.138 2.463.682.62 1.518.93 2.509.93 1.425 0 2.432-.596 3.021-1.79h2.857c-.387 1.178-1.092 2.146-2.114 2.905-1.007.743-2.261 1.115-3.764 1.115-1.223 0-2.323-.271-3.299-.813a6.073 6.073 0 0 1-2.276-2.323c-.543-1.007-.814-2.169-.814-3.485 0-1.317.264-2.47.79-3.462.542-1.007 1.294-1.781 2.254-2.323.976-.542 2.091-.813 3.345-.813 1.208 0 2.285.263 3.23.79a5.569 5.569 0 0 1 2.207 2.23c.526.945.79 2.037.79 3.276Zm-2.765-.837c-.015-.975-.364-1.758-1.045-2.346-.682-.589-1.526-.883-2.533-.883-.914 0-1.696.294-2.346.883-.651.573-1.038 1.355-1.162 2.346h7.086Zm12.289-6.946a1.64 1.64 0 0 1-1.208-.488 1.642 1.642 0 0 1-.488-1.208c0-.48.163-.883.488-1.208a1.64 1.64 0 0 1 1.208-.488c.465 0 .86.163 1.185.488.325.325.488.728.488 1.208s-.163.883-.488 1.208c-.325.325-.72.488-1.185.488Zm1.301 1.696v12.801h-2.649V52.283h2.649Zm9.704-.21c1.006 0 1.905.21 2.694.628a4.44 4.44 0 0 1 1.882 1.859c.449.82.674 1.812.674 2.973v7.551h-2.625v-7.156c0-1.146-.287-2.02-.86-2.625-.573-.62-1.355-.93-2.346-.93-.992 0-1.781.31-2.37.93-.573.604-.86 1.48-.86 2.625v7.156h-2.648V52.283h2.648v1.463a4.408 4.408 0 0 1 1.65-1.23 5.392 5.392 0 0 1 2.161-.442Zm7.513 6.599c0-1.317.264-2.47.79-3.462.542-1.007 1.286-1.781 2.23-2.323.945-.542 2.029-.813 3.253-.813 1.549 0 2.827.372 3.833 1.115 1.023.728 1.712 1.773 2.068 3.136h-2.858c-.232-.635-.604-1.13-1.115-1.487-.511-.356-1.154-.534-1.928-.534-1.084 0-1.952.387-2.602 1.162-.635.759-.953 1.827-.953 3.206 0 1.378.318 2.455.953 3.23.65.773 1.518 1.16 2.602 1.16 1.533 0 2.548-.673 3.043-2.02h2.858c-.372 1.3-1.069 2.338-2.091 3.113-1.022.759-2.292 1.138-3.81 1.138-1.224 0-2.308-.271-3.253-.813a5.966 5.966 0 0 1-2.23-2.323c-.526-1.007-.79-2.169-.79-3.485Zm20.134 6.621c-1.208 0-2.3-.271-3.276-.813a6.029 6.029 0 0 1-2.3-2.323c-.558-1.007-.836-2.169-.836-3.485 0-1.301.286-2.455.859-3.462a5.933 5.933 0 0 1 2.347-2.323c.991-.542 2.098-.813 3.322-.813 1.223 0 2.331.27 3.322.813a5.94 5.94 0 0 1 2.347 2.323c.573 1.007.859 2.16.859 3.462 0 1.3-.294 2.455-.883 3.462a6.17 6.17 0 0 1-2.416 2.346c-1.007.542-2.122.813-3.345.813Zm0-2.3c.681 0 1.316-.163 1.905-.488.604-.325 1.092-.813 1.463-1.464.372-.65.558-1.44.558-2.37 0-.928-.178-1.71-.534-2.346-.357-.65-.829-1.138-1.417-1.463a3.879 3.879 0 0 0-1.906-.488c-.681 0-1.316.162-1.905.488-.573.325-1.03.813-1.37 1.463-.341.635-.511 1.417-.511 2.347 0 1.378.348 2.447 1.045 3.206.712.743 1.603 1.115 2.672 1.115Zm24.526-10.92c1.007 0 1.905.21 2.695.628a4.44 4.44 0 0 1 1.882 1.859c.465.82.697 1.812.697 2.973v7.551h-2.625v-7.156c0-1.146-.287-2.02-.86-2.625-.573-.62-1.355-.93-2.346-.93-.992 0-1.782.31-2.37.93-.573.604-.86 1.48-.86 2.625v7.156h-2.625v-7.156c0-1.146-.287-2.02-.86-2.625-.573-.62-1.355-.93-2.346-.93-.991 0-1.781.31-2.37.93-.573.604-.859 1.48-.859 2.625v7.156h-2.649V52.283h2.649v1.463a4.396 4.396 0 0 1 1.649-1.23 5.231 5.231 0 0 1 2.138-.442c1.022 0 1.936.217 2.741.65a4.451 4.451 0 0 1 1.859 1.882c.387-.774.991-1.386 1.812-1.835a5.287 5.287 0 0 1 2.648-.697Zm20.144 6.297c0 .48-.031.914-.093 1.3h-9.781c.078 1.023.457 1.844 1.139 2.463.681.62 1.518.93 2.509.93 1.425 0 2.432-.596 3.02-1.79h2.858c-.387 1.178-1.092 2.146-2.114 2.905-1.007.743-2.262 1.115-3.764 1.115-1.224 0-2.323-.271-3.299-.813a6.082 6.082 0 0 1-2.277-2.323c-.542-1.007-.813-2.169-.813-3.485 0-1.317.263-2.47.79-3.462.542-1.007 1.293-1.781 2.253-2.323.976-.542 2.091-.813 3.346-.813 1.208 0 2.284.263 3.229.79a5.556 5.556 0 0 1 2.207 2.23c.527.945.79 2.037.79 3.276Zm-2.764-.837c-.016-.975-.364-1.758-1.046-2.346-.681-.589-1.525-.883-2.532-.883-.914 0-1.696.294-2.347.883-.65.573-1.037 1.355-1.161 2.346h7.086Z"/><path stroke="#F2F2F2" stroke-width="1.162" d="M60.457 124.084h412M60.457 206.084h412M60.457 288.084h412M60.457 370.084h412"/><path fill="url(#b)" fill-opacity=".24" d="M301.736 312.333c-19.129 4.252-21.573 35.746-40.946 37.087-12.905.893-21.8-1.883-31.585-13.013-10.268-11.678-6.116-38.259-14.433-41.641-10.903-4.434-18.363 46.386-34.909 52.702-9.657 3.686-11.478-26.026-16.529-26.026-7.269 0-7.558 19.458-15.543 27.978-11.428 12.196-21.435 18.466-35.895 14.965-11.19-2.71-13.423-19.696-24.794-20.17-11.992-.501-16.24 12.293-26.645 20.17V452.2h412v-350s-6.306 34.535-13.322 61.266c-5.903 22.491-6.582 27.327-18.311 45.415-8.228 12.689-17.07 13.835-25.719 26.026-16.417 23.139-2.374 79.104-26.028 73.522-13.483-3.181-18.634-31.881-25.41-31.881-8.994 0-8.116 36.87-22.951 44.894-14.303 7.737-23.735-12.497-38.98-9.109Z"/><path stroke="#F2F2F2" stroke-width="1.162" d="M60.457 452.084h412"/><path stroke="#1F8B4D" stroke-linecap="round" stroke-width="3.485" d="M60.457 364.236c10.405-7.873 14.653-20.66 26.645-20.16 11.37.474 13.604 17.452 24.794 20.16 14.46 3.5 24.467-2.768 35.895-14.958 7.985-8.516 8.274-27.964 15.543-27.964 5.052 0 6.872 29.698 16.529 26.013 16.546-6.312 24.006-57.108 34.909-52.676 8.317 3.38 4.165 29.948 14.433 41.621 9.785 11.125 18.68 13.899 31.585 13.006 19.373-1.34 21.817-32.819 40.946-37.069 15.245-3.386 24.677 16.838 38.98 9.105 14.835-8.02 13.957-44.873 22.951-44.873 6.776 0 11.927 28.687 25.41 31.867 23.654 5.578 9.611-50.36 26.028-73.488 8.649-12.185 17.258-14.168 25.719-26.013 9.382-13.134 12.408-22.898 18.311-45.378 7.016-26.717 13.322-61.229 13.322-61.229"/></g><defs><linearGradient id="b" x1="266.457" x2="266.457" y1="367.691" y2="452.2" gradientUnits="userSpaceOnUse"><stop stop-color="#1F8B4D"/><stop offset="1" stop-color="#1F8B4D" stop-opacity=".5"/></linearGradient><filter id="a" width="524.336" height="528.336" x="0" y="0" color-interpolation-filters="sRGB" filterUnits="userSpaceOnUse"><feFlood flood-opacity="0" result="BackgroundImageFix"/><feColorMatrix in="SourceAlpha" result="hardAlpha" values="0 0 0 0 0 0 0 0 0 0 0 0 0 0 0 0 0 0 127 0"/><feOffset/><feGaussianBlur stdDeviation="4.289"/><feComposite in2="hardAlpha" operator="out"/><feColorMatrix values="0 0 0 0 0 0 0 0 0 0 0 0 0 0 0 0 0 0 0.08 0"/><feBlend in2="BackgroundImageFix" result="effect1_dropShadow_22221_1333"/><feColorMatrix in="SourceAlpha" result="hardAlpha" values="0 0 0 0 0 0 0 0 0 0 0 0 0 0 0 0 0 0 127 0"/><feMorphology in="SourceAlpha" radius="21.445" result="effect2_dropShadow_22221_1333"/><feOffset dx="-4.289" dy="16.084"/><feGaussianBlur stdDeviation="26.807"/><feComposite in2="hardAlpha" operator="out"/><feColorMatrix values="0 0 0 0 0 0 0 0 0 0 0 0 0 0 0 0 0 0 0.15 0"/><feBlend in2="effect1_dropShadow_22221_1333" result="effect2_dropShadow_22221_1333"/><feBlend in="SourceGraphic" in2="effect2_dropShadow_22221_1333" result="shape"/></filter></defs></svg>