<svg xmlns="http://www.w3.org/2000/svg" width="64" height="64" fill="none"><rect width="64" height="64" fill="#2A7DEC" fill-opacity=".06" rx="12"/><path fill="#2A7DEC" d="M37.041 30.163v-8.15c0-2.868-2.333-5.2-5.2-5.2H20.266a5.206 5.206 0 0 0-5.2 5.2v8.15c0 2.825 2.266 5.132 5.062 5.198v4.514a1.125 1.125 0 0 0 1.998.71l4.25-5.222h5.465c2.867 0 5.2-2.333 5.2-5.2Zm-7.512-.192h-7.313a1.125 1.125 0 0 1 0-2.25h7.313a1.125 1.125 0 0 1 0 2.25Zm.181-4.721h-7.313a1.125 1.125 0 0 1 0-2.25h7.313a1.125 1.125 0 0 1 0 2.25Z"/><path fill="#2A7DEC" d="M43.853 23.497h-4.562v6.666c0 4.108-3.342 7.45-7.45 7.45h-4.172a5.086 5.086 0 0 0 4.95 3.955h5.3l4.412 5.22a1.124 1.124 0 0 0 1.247.33c.443-.162.738-.584.738-1.055v-4.516a5.087 5.087 0 0 0 4.62-5.06v-7.91a5.087 5.087 0 0 0-5.083-5.08Z"/></svg>