<svg xmlns="http://www.w3.org/2000/svg" width="64" height="64" fill="none"><rect width="64" height="64" fill="#F4F8FE" rx="12"/><path fill="#2A7DEC" d="M34.127 18.155c-1.79-.664-3.945-.084-5.158 1.393a4.834 4.834 0 0 0-1.096 2.686 4.66 4.66 0 0 0 .653 2.76c.479.787 1.2 1.458 2.043 1.834.935.419 1.94.542 2.946.341 1.839-.362 3.375-1.94 3.66-3.796.039-.26.063-.52.067-.784 0-.004-.007-.004-.007-.007v-.015c.003-1.982-1.259-3.726-3.108-4.412ZM22.803 18.155c-1.79-.664-3.944-.084-5.157 1.393a4.808 4.808 0 0 0-1.097 2.686 4.66 4.66 0 0 0 .654 2.76c.474.787 1.199 1.458 2.042 1.834.935.419 1.941.542 2.947.341 1.838-.362 3.375-1.94 3.66-3.796.038-.26.07-.52.07-.784v-.018c-.004-1.983-1.273-3.73-3.119-4.416ZM36.834 29.546c-.703-.559-1.54-.875-2.44-.879-.605 0-1.206-.007-1.81-.007H20.887c-.52 0-1.037.004-1.557.007-1.065.007-2.124.464-2.83 1.27a3.897 3.897 0 0 0-.981 2.562c-.004.816-.007 1.631-.007 2.444v3.427l-.021 2.458c0 .154-.004.31-.004.46v.11c0-.057.004-.113.018-.163a.176.176 0 0 0 .007-.038v-.007.46-.007a.124.124 0 0 0-.007-.038.57.57 0 0 1-.021-.155v.084c.003.134.014.264.028.394v.197c0 .664.133 1.297.436 1.895a3.818 3.818 0 0 0 2.52 1.951c.658.144 1.361.095 2.029.095h13.81c.6 0 1.17-.109 1.722-.355.998-.447 1.768-1.375 2.06-2.426.12-.432.137-.875.137-1.318v-9.489c-.01-1.118-.51-2.229-1.392-2.932Zm-5.741 8.856a.599.599 0 0 1-.144.109l-.12.067-4.588 2.584c-.161.091-.32.186-.481.27-.373.197-.812.324-1.23.2-.384-.112-.644-.421-.778-.787-.07-.193-.087-.4-.087-.604.003-.3.003-.602.007-.9.01-1.027.017-2.05.024-3.077.007-.629-.003-1.262.018-1.891.014-.383.116-.76.39-1.037.292-.295.72-.355 1.114-.281.222.042.433.133.623.253l2 1.213c.833.506 1.666 1.009 2.5 1.515.186.112.372.218.555.337.376.243.643.644.633 1.1-.007.338-.183.7-.436.929ZM48.488 42.821V30.882c0-.78-.179-1.687-.935-2.088-.717-.38-1.635-.204-2.324.172-.084.046-.158.11-.235.165l-.767.56c-1.336.973-2.671 1.947-4.008 2.917l-.112.081a.773.773 0 0 0-.344.65c-.004.18.007.356.007.535v7.6c-.046.279.084.546.333.721 1.21.84 2.423 1.68 3.632 2.521.454.316.9.661 1.371.95.253.158.563.27.851.35.341.096.675.117 1.023.068.5-.074.932-.412 1.181-.84.426-.735.327-1.61.327-2.423Z"/></svg>