<svg xmlns="http://www.w3.org/2000/svg" width="64" height="64" fill="none"><rect width="64" height="64" fill="#1F8B4D" fill-opacity=".06" rx="12"/><g clip-path="url(#a)"><path fill="#1F8B4D" fill-rule="evenodd" d="M44.365 39.761c.01.033-.006-.034 0 0Zm0 0 1.256 4.552a1.094 1.094 0 0 1-1.346 1.346l-4.552-1.255a2.932 2.932 0 0 1-1.58-.808l-4.562-4.562-7.349 7.349a3.282 3.282 0 0 1-4.641 0l-4.17-4.17a3.281 3.281 0 0 1 0-4.641l7.349-7.35-6.064-6.063c-1.28-1.28-1.107-3.533.387-5.027 1.495-1.495 3.747-1.668 5.028-.388l6.063 6.064 4.034-4.033a1.075 1.075 0 0 1 .442-.443l2.873-2.873a3.281 3.281 0 0 1 4.64 0l4.171 4.17a3.282 3.282 0 0 1 0 4.641l-7.348 7.35 4.562 4.562c.42.42.7.965.807 1.58Zm-9.153-16.888-3.481 3.481 5.718 5.718 7.349-7.348a1.094 1.094 0 0 0 0-1.548l-4.171-4.17a1.094 1.094 0 0 0-1.548 0l-2.32 2.32 1.85 1.851a1.094 1.094 0 0 1-1.546 1.547l-1.851-1.85ZM21.288 36.797l-2.321 2.32a1.095 1.095 0 0 0 0 1.548l4.171 4.171c.427.427 1.12.427 1.547 0l7.349-7.349-5.718-5.718-3.481 3.481 1.851 1.851a1.094 1.094 0 0 1-1.547 1.547l-1.851-1.85Zm1.594-11.556 15.864 15.865 2.321-2.321-15.864-15.864-2.321 2.32Z" clip-rule="evenodd"/></g><defs><clipPath id="a"><path fill="#fff" d="M14 14h36v36H14z"/></clipPath></defs></svg>