<svg xmlns="http://www.w3.org/2000/svg" width="64" height="64" fill="none"><rect width="64" height="64" fill="#2A7DEC" fill-opacity=".06" rx="12"/><path fill="#2A7DEC" d="M26.375 25.25c-.621 0-1.125.504-1.125 1.125v11.25c0 .621.504 1.125 1.125 1.125h11.25c.621 0 1.125-.504 1.125-1.125v-11.25c0-.621-.504-1.125-1.125-1.125h-11.25Z"/><path fill="#2A7DEC" fill-rule="evenodd" d="M25.25 16.25c.621 0 1.125.504 1.125 1.125v3.375h4.5v-3.375a1.125 1.125 0 0 1 2.25 0v3.375h4.5v-3.375a1.125 1.125 0 0 1 2.25 0v3.375a3.375 3.375 0 0 1 3.375 3.375h3.375a1.125 1.125 0 0 1 0 2.25H43.25v4.5h3.375a1.125 1.125 0 0 1 0 2.25H43.25v4.5h3.375a1.125 1.125 0 0 1 0 2.25H43.25a3.375 3.375 0 0 1-3.375 3.375v3.375a1.125 1.125 0 0 1-2.25 0V43.25h-4.5v3.375a1.125 1.125 0 0 1-2.25 0V43.25h-4.5v3.375a1.125 1.125 0 0 1-2.25 0V43.25a3.375 3.375 0 0 1-3.375-3.375h-3.375a1.125 1.125 0 0 1 0-2.25h3.375v-4.5h-3.375a1.125 1.125 0 0 1 0-2.25h3.375v-4.5h-3.375a1.125 1.125 0 0 1 0-2.25h3.375a3.375 3.375 0 0 1 3.375-3.375v-3.375c0-.621.504-1.125 1.125-1.125ZM23 39.875c0 .621.504 1.125 1.125 1.125h15.75c.621 0 1.125-.504 1.125-1.125v-15.75c0-.621-.504-1.125-1.125-1.125h-15.75c-.621 0-1.125.504-1.125 1.125v15.75Z" clip-rule="evenodd"/></svg>