<svg xmlns="http://www.w3.org/2000/svg" width="16" height="16" fill="none"><g fill="#2A7DEC" clip-path="url(#a)"><path d="M15.88 2a.266.266 0 0 0-.442-.112l-.925.925h-1.325V1.487l.924-.925a.266.266 0 0 0-.11-.443 2.777 2.777 0 0 0-.812-.113c-.754 0-1.46.286-1.991.818a2.817 2.817 0 0 0-.78 2.485l.043.24-6.913 6.913c-.279-.05-.447-.086-.733-.086-.742 0-1.469.3-1.993.823-.739.74-1 1.822-.704 2.802.058.193.3.253.443.111l.924-.924H2.82v1.326l-.931.925a.266.266 0 0 0 .11.442 2.815 2.815 0 0 0 3.583-3.19l-.043-.24 6.912-6.913c.275.05.45.087.733.086.744 0 1.47-.3 1.993-.823.74-.74 1-1.822.704-2.802Z"/><path d="m15.315 11.999-3.288-3.255a2.356 2.356 0 0 0-.79-.51l-3.034 3.034c.12.298.29.571.51.79L12 15.314A2.344 2.344 0 1 0 15.315 12Zm-1.337 1.978a.469.469 0 0 1-.662 0l-2.304-2.27a.469.469 0 1 1 .663-.663l2.303 2.27a.469.469 0 0 1 0 .663ZM4.009 2.683h-.001l.423-.422a.266.266 0 0 0-.051-.416L1.518.067a.469.469 0 0 0-.573.07L.137.945a.469.469 0 0 0-.07.573l1.779 2.86c.089.149.294.173.416.051l.42-.42L5.68 7.006 7.006 5.68 4.009 2.683Z"/></g><defs><clipPath id="a"><path fill="#fff" d="M0 0h16v16H0z"/></clipPath></defs></svg>