<svg xmlns="http://www.w3.org/2000/svg" width="24" height="24" fill="none"><g clip-path="url(#a)"><path fill="#2A7DEC" fill-rule="evenodd" d="M11.478 18.003V4.72a15.596 15.596 0 0 0-1.705-1.018 14.07 14.07 0 0 0-3.702-1.3 14.223 14.223 0 0 0-3.464-.251v13.48a15.072 15.072 0 0 1 4.778.54 15.702 15.702 0 0 1 4.093 1.83ZM12.52 4.72v13.282a15.702 15.702 0 0 1 4.093-1.831 15.071 15.071 0 0 1 4.778-.539V2.152a14.22 14.22 0 0 0-3.467.251 14.07 14.07 0 0 0-3.704 1.304 15.74 15.74 0 0 0-1.7 1.014ZM1.563 16.187a.529.529 0 0 0 .183.397.521.521 0 0 0 .38.123c1.727-.136 3.386.02 4.978.468 1.591.447 3.12 1.187 4.587 2.22a.521.521 0 0 0 .608.006c1.47-1.036 3.001-1.778 4.596-2.226a14.146 14.146 0 0 1 5.02-.466.522.522 0 0 0 .52-.522V3.95c.477.002.897.005 1.032.009.172.005.349.013.533.024v14.598c-2.048-.1-4.099.136-6.071.695-2.018.565-3.963 1.449-5.854 2.587-1.954-1.175-4.003-2.078-6.128-2.64A19.428 19.428 0 0 0 0 18.58V3.983c.183-.01.36-.019.532-.024.13-.004.549-.007 1.031-.009v12.237Z" clip-rule="evenodd"/></g><defs><clipPath id="a"><path fill="#fff" d="M0 0h24v24H0z"/></clipPath></defs></svg>