<svg xmlns="http://www.w3.org/2000/svg" width="64" height="64" fill="none"><rect width="64" height="64" fill="#7A4DC3" fill-opacity=".06" rx="12"/><g fill="#7A4DC3" clip-path="url(#a)"><path fill-rule="evenodd" d="M47.75 38.75v3h-10.8c-.6 1.8-2.25 3-4.2 3-2.55 0-4.5-1.95-4.5-4.5s1.95-4.5 4.5-4.5c1.95 0 3.6 1.2 4.2 3h10.8Zm-15 0c.9 0 1.5.75 1.5 1.5s-.6 1.5-1.5 1.5-1.5-.75-1.5-1.5.6-1.5 1.5-1.5Z" clip-rule="evenodd"/><path d="M40.25 41.75h-1.5v3h3v-3h-1.5ZM47.75 41.75h-4.5v3.75h3v-3.75h1.5ZM28.203 20.75c2.466 0 4.786.874 6.623 2.441a8.16 8.16 0 0 1 2.87-.521c4.028 0 7.383 2.85 8.235 6.632C48.339 30.576 50 33.117 50 35.99c0 .171-.008.341-.02.51h-3.613c.02-.166.033-.336.033-.51 0-1.672-1.119-3.188-2.687-3.74l-1.088-.383-.107-1.147c-.235-2.508-2.328-4.45-4.823-4.45-.808 0-1.6.213-2.33.634l-1.259.728-.975-1.078c-1.281-1.416-3.037-2.204-4.928-2.204-3.53 0-6.468 2.782-6.726 6.335l-.084 1.174-1.11.393c-1.566.553-2.683 2.068-2.683 3.738 0 2.33 1.895 3.96 3.9 3.96h4.508a6.717 6.717 0 0 0 .855 3.6H21.5c-4.276 0-7.5-3.538-7.5-7.56 0-2.857 1.643-5.383 4.025-6.665.874-4.857 5.087-8.575 10.178-8.575Z"/></g><defs><clipPath id="a"><path fill="#fff" d="M14 14h36v36H14z"/></clipPath></defs></svg>