<svg xmlns="http://www.w3.org/2000/svg" width="64" height="64" fill="none"><rect width="64" height="64" fill="#F4F8FE" rx="12"/><path fill="#2A7DEC" d="M48.5 38.45a1.5 1.5 0 0 1 1.5 1.5v3a1.5 1.5 0 0 1-1.5 1.5H35v-6h13.5ZM28.84 20c.82 0 1.623.094 2.4.277V24.3a6.73 6.73 0 0 0-2.4-.44c-3.688 0-6.757 2.984-7.026 6.793l-.09 1.26-1.16.42c-1.635.593-2.802 2.218-2.802 4.009 0 2.498 1.666 4.346 3.76 4.346v3.761c-4.468 0-7.522-3.794-7.522-8.107a8.197 8.197 0 0 1 4.206-7.147C19.12 23.987 23.522 20 28.841 20Zm.833 24.45h-8.15v-3.762h8.15v3.761ZM48.5 27.95a1.5 1.5 0 0 1 1.5 1.5v6a1.5 1.5 0 0 1-1.5 1.5H35v-9h13.5Zm-3 3a1.5 1.5 0 1 0 0 3 1.5 1.5 0 0 0 0-3Zm3-10.5a1.5 1.5 0 0 1 1.5 1.5v3a1.5 1.5 0 0 1-1.5 1.5H35v-6h13.5Zm-6.75 3.3a.75.75 0 0 0 0 1.5h4.5a.75.75 0 0 0 0-1.5h-4.5Z"/></svg>